<svg xmlns="http://www.w3.org/2000/svg" width="240" height="240" viewBox="0 0 240 240">
    <g fill="none" fill-rule="evenodd">
        <path fill="#36ADE1" d="M120 240C53.726 240 0 186.274 0 120S53.726 0 120 0s120 53.726 120 120-53.726 120-120 120zm0-1c65.722 0 119-53.278 119-119C239 54.278 185.722 1 120 1 54.278 1 1 54.278 1 120c0 65.722 53.278 119 119 119z"/>
        <circle cx="34" cy="36" r="5" fill="#36ADE1"/>
        <circle cx="234" cy="158" r="5" fill="#36ADE1"/>
        <circle cx="162" cy="8" r="5" fill="#A9DDF3"/>
        <circle cx="220" cy="186" r="3" fill="#A9DDF3"/>
        <circle cx="16" cy="180" r="3" fill="#A9DDF3"/>
        <circle cx="21" cy="187" r="3" fill="#36ADE1"/>
        <circle cx="94" cy="237" r="3" fill="#36ADE1"/>
    </g>
</svg>
